<svg width="164" height="57" viewBox="0 0 164 57" fill="none" xmlns="http://www.w3.org/2000/svg">
<path d="M14.0776 4.16104V17.9003H9.50487V7.75288H5.30666V17.9003H0.733962V4.16104H14.0776Z" fill="white"/>
<path d="M23.2299 4.16104C24.5045 4.16104 25.6148 4.3704 26.5609 4.78912C27.507 5.20784 28.2362 5.80975 28.7487 6.59485C29.2612 7.37996 29.5174 8.29591 29.5174 9.34271C29.5174 10.3895 29.2612 11.3055 28.7487 12.0906C28.2362 12.8757 27.507 13.4776 26.5609 13.8963C25.6148 14.315 24.5045 14.5244 23.2299 14.5244H21.2392V17.9003H16.5877V4.16104H23.2299ZM22.9343 10.9522C23.565 10.9522 24.038 10.8148 24.3534 10.54C24.6687 10.2521 24.8264 9.85303 24.8264 9.34271C24.8264 8.83239 24.6687 8.43984 24.3534 8.16506C24.038 7.87719 23.565 7.73325 22.9343 7.73325H21.2392V10.9522H22.9343Z" fill="white"/>
<path d="M30.9978 4.16104H35.5705V11.3055L40.3206 4.16104H44.6962V17.9003H40.1235V10.7755L35.3931 17.9003H30.9978V4.16104Z" fill="white"/>
<path d="M54.234 18.2144C52.7492 18.2144 51.4155 17.9069 50.2329 17.2919C49.0503 16.6769 48.1239 15.8263 47.4538 14.7403C46.7836 13.6411 46.4486 12.4046 46.4486 11.0307C46.4486 9.65675 46.7836 8.42676 47.4538 7.3407C48.1239 6.24156 49.0503 5.38449 50.2329 4.76949C51.4155 4.1545 52.7492 3.847 54.234 3.847C55.7188 3.847 57.0525 4.1545 58.2351 4.76949C59.4177 5.38449 60.344 6.24156 61.0142 7.3407C61.6843 8.42676 62.0194 9.65675 62.0194 11.0307C62.0194 12.4046 61.6843 13.6411 61.0142 14.7403C60.344 15.8263 59.4177 16.6769 58.2351 17.2919C57.0525 17.9069 55.7188 18.2144 54.234 18.2144ZM54.234 14.4655C54.8121 14.4655 55.3312 14.3281 55.7911 14.0533C56.2641 13.7654 56.6386 13.3664 56.9145 12.856C57.1905 12.3326 57.3284 11.7242 57.3284 11.0307C57.3284 10.3372 57.1905 9.73526 56.9145 9.22494C56.6386 8.70154 56.2641 8.30245 55.7911 8.02767C55.3312 7.73979 54.8121 7.59586 54.234 7.59586C53.6558 7.59586 53.1302 7.73979 52.6572 8.02767C52.1973 8.30245 51.8294 8.70154 51.5534 9.22494C51.2775 9.73526 51.1395 10.3372 51.1395 11.0307C51.1395 11.7242 51.2775 12.3326 51.5534 12.856C51.8294 13.3664 52.1973 13.7654 52.6572 14.0533C53.1302 14.3281 53.6558 14.4655 54.234 14.4655Z" fill="white"/>
<path d="M72.6229 10.7559C73.3587 11.0568 73.9303 11.4952 74.3376 12.0709C74.7581 12.6467 74.9684 13.3009 74.9684 14.0337C74.9684 14.8973 74.6596 15.6497 74.042 16.2909C73.4376 16.9189 72.6163 17.4031 71.5783 17.7433C70.5533 18.0704 69.4102 18.234 68.1487 18.234C66.1383 18.234 64.2265 17.8349 62.4131 17.0367L63.7731 13.8374C64.417 14.0991 65.0871 14.3019 65.7835 14.4459C66.48 14.5767 67.1369 14.6421 67.7545 14.6421C68.5035 14.6421 69.1079 14.5375 69.5678 14.3281C70.0409 14.1187 70.2774 13.8112 70.2774 13.4056C70.2774 12.856 69.8241 12.5813 68.9174 12.5813H65.1922V9.24457H68.5232C68.9174 9.24457 69.2131 9.1726 69.4102 9.02867C69.6204 8.88473 69.7255 8.68192 69.7255 8.42022C69.7255 8.08 69.5416 7.81831 69.1736 7.63511C68.8189 7.45192 68.3458 7.36033 67.7545 7.36033C67.2026 7.36033 66.6048 7.43884 65.9609 7.59586C65.3171 7.75288 64.7061 7.97532 64.1279 8.2632L62.7679 4.82838C64.2922 4.13487 65.9478 3.78812 67.7348 3.78812C68.9305 3.78812 70.0343 3.95168 71.0461 4.2788C72.071 4.60593 72.8857 5.08353 73.4901 5.71161C74.1077 6.32661 74.4165 7.05283 74.4165 7.89027C74.4165 8.50527 74.2588 9.06138 73.9434 9.55861C73.6281 10.0558 73.1879 10.4549 72.6229 10.7559Z" fill="white"/>
<path d="M88.1631 14.4066V17.9003H76.6919V4.16104H87.9069V7.65474H81.2646V9.2642H87.0987V12.6009H81.2646V14.4066H88.1631Z" fill="white"/>
<path d="M96.7626 4.16104C98.0372 4.16104 99.1475 4.3704 100.094 4.78912C101.04 5.20784 101.769 5.80975 102.281 6.59485C102.794 7.37996 103.05 8.29591 103.05 9.34271C103.05 10.3895 102.794 11.3055 102.281 12.0906C101.769 12.8757 101.04 13.4776 100.094 13.8963C99.1475 14.315 98.0372 14.5244 96.7626 14.5244H94.7719V17.9003H90.1204V4.16104H96.7626ZM96.467 10.9522C97.0977 10.9522 97.5707 10.8148 97.8861 10.54C98.2015 10.2521 98.3591 9.85303 98.3591 9.34271C98.3591 8.83239 98.2015 8.43984 97.8861 8.16506C97.5707 7.87719 97.0977 7.73325 96.467 7.73325H94.7719V10.9522H96.467Z" fill="white"/>
<path d="M111.661 18.2144C110.202 18.2144 108.888 17.9134 107.719 17.3115C106.549 16.6965 105.63 15.846 104.96 14.7599C104.303 13.6608 103.974 12.4177 103.974 11.0307C103.974 9.64367 104.303 8.40713 104.96 7.32107C105.63 6.22193 106.549 5.3714 107.719 4.76949C108.888 4.1545 110.202 3.847 111.661 3.847C113.001 3.847 114.197 4.08253 115.248 4.55359C116.299 5.02465 117.167 5.70507 117.85 6.59485L114.913 9.20532C114.059 8.13234 113.054 7.59586 111.897 7.59586C110.925 7.59586 110.143 7.9099 109.552 8.53798C108.961 9.15298 108.665 9.98388 108.665 11.0307C108.665 12.0775 108.961 12.9149 109.552 13.543C110.143 14.158 110.925 14.4655 111.897 14.4655C113.054 14.4655 114.059 13.929 114.913 12.856L117.85 15.4665C117.167 16.3563 116.299 17.0367 115.248 17.5078C114.197 17.9788 113.001 18.2144 111.661 18.2144Z" fill="white"/>
<path d="M128.964 10.8344L133.044 17.9003H127.801L125.16 12.9346H123.859V17.9003H119.207V4.16104H123.859V9.28383H125.278L128.215 4.16104H133.063L128.964 10.8344Z" fill="white"/>
<path d="M134.082 4.16104H138.655V11.3055L143.405 4.16104H147.781V17.9003H143.208V10.7755L138.477 17.9003H134.082V4.16104Z" fill="white"/>
<path d="M150.302 4.16104H154.874V11.3055L159.624 4.16104H164V17.9003H159.427V10.7755L154.697 17.9003H150.302V4.16104ZM157.141 3.37594C155.617 3.37594 154.52 3.09461 153.849 2.53195C153.179 1.9693 152.844 1.12531 152.844 0H155.939C155.939 0.444891 156.024 0.765475 156.195 0.96175C156.379 1.15803 156.694 1.25616 157.141 1.25616C157.588 1.25616 157.903 1.15803 158.087 0.96175C158.284 0.765475 158.383 0.444891 158.383 0H161.477C161.477 1.12531 161.135 1.9693 160.452 2.53195C159.769 3.09461 158.665 3.37594 157.141 3.37594Z" fill="white"/>
<path d="M35.6947 38.3637C35.7813 37.8585 36.004 37.5628 36.3629 37.4765C36.7341 37.3903 37.062 37.4704 37.3466 37.7168C37.6312 37.9756 37.6868 38.3452 37.5136 38.8258C36.1896 41.0314 34.414 43.237 32.1867 45.4427C29.9718 47.6483 27.4909 49.6568 24.744 51.4681C22.0094 53.2795 19.2005 54.6903 16.3175 55.7007C13.4344 56.7234 10.6627 57.1424 8.00236 56.9576C6.7155 56.8467 5.47194 56.5509 4.27169 56.0704C2.77448 55.4666 1.71034 54.5055 1.07928 53.187C0.448223 51.8686 0.10176 50.4516 0.0398913 48.936C-0.108593 46.2498 0.157441 43.6067 0.837994 41.0068C1.51855 38.4191 2.47132 35.9424 3.69632 33.5766C6.12156 28.8943 9.00463 24.5015 12.3455 20.3983C15.6988 16.295 19.5285 12.697 23.8345 9.6042C25.0719 8.74167 26.4206 7.97154 27.8807 7.29383C29.3532 6.61613 30.8628 6.37585 32.4095 6.573C32.991 6.6839 33.5169 6.93034 33.9871 7.31232C34.4697 7.68198 34.8223 8.14405 35.0451 8.69854C35.2678 9.38857 35.342 10.0909 35.2678 10.8056C35.2059 11.5203 35.0822 12.2165 34.8966 12.8942C33.5231 18.094 31.0917 22.7702 27.6023 26.9227C27.4291 27.1199 27.2187 27.2308 26.9712 27.2554C26.7238 27.2678 26.4948 27.1938 26.2845 27.0336C26.0741 26.8488 25.9628 26.627 25.9504 26.3683C25.938 26.1095 26.0308 25.8754 26.2288 25.6659C28.2086 23.6328 29.879 21.347 31.2402 18.8087C32.6136 16.2704 33.554 13.5965 34.0614 10.7871C34.1232 10.2203 34.0675 9.66581 33.8943 9.12365C33.5107 8.37201 32.9601 7.92842 32.2424 7.79287C31.5371 7.65733 30.7885 7.70662 29.9966 7.94074C29.2047 8.16253 28.4994 8.43978 27.8807 8.77247C25.4555 10.1279 23.1106 11.853 20.8462 13.9477C18.5819 16.0424 16.4598 18.2974 14.48 20.7125C12.5002 23.1153 10.7246 25.4564 9.15311 27.736C7.63115 29.9909 6.23292 32.3567 4.95843 34.8335C3.68394 37.3102 2.72498 39.8731 2.08155 42.5224C1.45049 45.1839 1.32675 47.9009 1.71034 50.6734C1.84645 51.4496 2.10011 52.1766 2.47132 52.8543C2.85491 53.5444 3.38697 54.0989 4.06753 54.5178C4.7852 54.8875 5.52762 55.1709 6.29479 55.368C8.5468 55.8856 10.8236 55.8979 13.1251 55.405C15.4389 54.9121 17.6724 54.1235 19.8254 53.0392C21.9908 51.9548 23.983 50.7719 25.8019 49.4904C26.8784 48.7142 28.1529 47.7038 29.6254 46.4592C31.1102 45.2147 32.4404 43.8778 33.6159 42.4484C34.8038 41.0191 35.4967 39.6575 35.6947 38.3637Z" fill="white"/>
<path d="M53.7124 23.4479C54.0094 23.6574 54.1269 23.91 54.0651 24.2057C54.0156 24.5015 53.8609 24.7294 53.6011 24.8896C53.3536 25.0375 53.0752 25.0005 52.7658 24.7787C52.4565 24.3228 52.0234 24.0271 51.4666 23.8915C50.9221 23.7437 50.3591 23.6574 49.7776 23.6328C49.5549 23.6205 49.3383 23.602 49.128 23.5773C47.1111 23.5034 45.088 23.5527 43.0587 23.7252C42.3781 25.709 41.6543 27.6867 40.8871 29.6582C40.7757 29.9663 40.6582 30.2805 40.5344 30.6009C40.386 32.2766 40.0828 33.7922 39.625 35.1477C39.5384 35.4064 39.4456 35.6652 39.3466 35.924C39.1362 36.5524 38.8887 37.1623 38.6041 37.7538C38.3072 38.3575 37.9112 38.8874 37.4163 39.3433C37.2059 39.4542 37.0203 39.448 36.8595 39.3248C36.6986 39.2016 36.6429 39.0291 36.6924 38.8073C37.6204 35.4557 38.6846 32.1288 39.8848 28.8265C39.9591 28.617 40.0333 28.4075 40.1075 28.1981C39.9838 27.3971 39.724 26.6948 39.328 26.091C38.932 25.4749 38.3381 25.0498 37.5462 24.8157C37.4101 24.7541 37.2245 24.7233 36.9894 24.7233C36.8161 24.7233 36.6615 24.7109 36.5254 24.6863C36.3893 24.6493 36.3212 24.5631 36.3212 24.4275C36.3336 24.3783 36.3583 24.3351 36.3954 24.2982C36.4326 24.2489 36.4759 24.2181 36.5254 24.2057C37.936 23.8731 39.3466 23.602 40.7572 23.3925C41.0665 23.3555 41.4068 23.3124 41.778 23.2631C41.778 23.2508 41.7842 23.2323 41.7966 23.2077C41.8089 23.183 41.8151 23.1584 41.8151 23.1337C41.9141 22.838 42.0069 22.5423 42.0935 22.2466C42.5761 20.8542 42.9349 19.4495 43.17 18.0324C43.2072 17.7121 43.3495 17.5026 43.5969 17.404C43.8568 17.2931 44.0981 17.2931 44.3208 17.404C44.5559 17.5026 44.6673 17.7182 44.6549 18.0509C44.2837 19.739 43.8258 21.4148 43.2814 23.0783C44.494 22.9058 45.7685 22.7702 47.1049 22.6717C48.4536 22.5608 49.7157 22.5546 50.8912 22.6532C52.0667 22.7518 53.0071 23.0167 53.7124 23.4479ZM38.1958 37.2732C38.6784 36.5462 39.0682 35.7083 39.3651 34.7595C39.6497 33.7984 39.8601 32.8866 39.9962 32.024C39.3404 33.7614 38.7403 35.5112 38.1958 37.2732ZM40.3303 27.5327C40.7634 26.3128 41.1779 25.0929 41.5738 23.8731C40.3117 24.0209 39.0496 24.2119 37.7875 24.446C38.4928 24.7048 39.0558 25.1053 39.4765 25.6474C39.8848 26.1773 40.1694 26.8057 40.3303 27.5327Z" fill="white"/>
<path d="M47.2674 32.5416V32.5785C47.2674 32.5662 47.2612 32.56 47.2488 32.56C47.2612 32.5477 47.2674 32.5416 47.2674 32.5416ZM60.631 28.8265C60.7052 28.7526 60.7794 28.7279 60.8537 28.7526C60.9279 28.7772 60.9774 28.8265 61.0022 28.9004C61.0393 28.9744 61.0207 29.0483 60.9465 29.1222C60.0185 30.0094 58.9976 30.7672 57.884 31.3956C56.7704 32.024 55.6072 32.5539 54.3946 32.9852C51.8828 33.8723 49.2905 34.1681 46.6178 33.8723L46.6363 33.8539C46.6363 33.8539 46.6301 33.8539 46.6178 33.8539C46.6178 33.8539 46.6178 33.8477 46.6178 33.8354C46.2218 35.7206 45.7454 37.5689 45.1886 39.3803C44.6194 41.2039 43.8151 42.929 42.7757 44.5555C42.7262 44.6417 42.652 44.6972 42.553 44.7218C42.4416 44.7465 42.3426 44.7342 42.256 44.6849C42.1447 44.6233 42.0828 44.4384 42.0704 44.1304C42.0581 43.8223 42.0766 43.4773 42.1261 43.0953C42.1632 42.7134 42.2003 42.3807 42.2375 42.0973C42.2622 41.9494 42.2808 41.8385 42.2932 41.7646C42.8252 38.7457 43.8708 35.9116 45.4299 33.2624C45.6897 31.8454 45.9743 30.4345 46.2837 29.0298C46.3827 28.7218 46.5621 28.5431 46.8219 28.4938C47.0818 28.4445 47.3107 28.5 47.5087 28.6601C47.719 28.8203 47.7933 29.0668 47.7314 29.3995C47.6448 29.6952 47.5582 29.9909 47.4715 30.2866C48.1768 29.3995 48.9564 28.6725 49.8102 28.1057C50.6763 27.5265 51.5301 27.4341 52.3715 27.8284C53.4233 28.6417 53.844 29.4179 53.6336 30.1573C53.4357 30.8966 52.9098 31.5435 52.056 32.098C51.2022 32.6401 50.336 33.0406 49.4575 33.2994C51.1898 33.3733 52.916 33.1084 54.6359 32.5046C56.3559 31.9008 57.9026 31.0937 59.276 30.0833C59.771 29.7014 60.2226 29.2824 60.631 28.8265ZM42.9799 42.5039C43.7842 40.6926 44.3719 38.8073 44.7431 36.8481C44.7926 36.5893 44.8421 36.3306 44.8916 36.0718C43.9265 38.1296 43.2892 40.2736 42.9799 42.5039ZM47.2488 32.56C47.2241 32.5847 47.2179 32.6093 47.2303 32.634L47.2674 32.5785C47.3787 32.6648 47.5025 32.751 47.6386 32.8373C48.0222 32.8743 48.4181 32.825 48.8265 32.6894C48.9502 32.6525 49.0801 32.6217 49.2162 32.597C49.8225 32.4368 50.4907 32.1473 51.2208 31.7283C51.9632 31.3094 52.4643 30.8227 52.7242 30.2682C52.984 29.7137 52.7056 29.1407 51.8889 28.5492C51.4682 28.3891 51.0228 28.4322 50.5526 28.6786C50.0948 28.9251 49.6617 29.2516 49.2534 29.6582C48.845 30.0525 48.5109 30.3975 48.2511 30.6933C47.818 31.2354 47.4035 31.7961 47.0075 32.3752C47.0446 32.3875 47.0818 32.406 47.1189 32.4307C47.156 32.48 47.1993 32.5231 47.2488 32.56Z" fill="white"/>
<path d="M74.0828 28.8635C74.1323 28.7772 74.2004 28.7402 74.287 28.7526C74.3736 28.7649 74.4417 28.808 74.4911 28.8819C74.5406 28.9435 74.5406 29.0175 74.4911 29.1037C74.1323 29.6089 73.7178 30.0587 73.2476 30.453C72.7774 30.835 72.2886 31.1985 71.7813 31.5435C71.6947 31.6051 71.6143 31.6605 71.54 31.7098C70.315 32.5477 69.1333 33.1946 67.995 33.6505C66.8566 34.0941 65.8667 34.1804 65.0253 33.9093C64.1962 33.6259 63.6147 32.8003 63.2806 31.4326C62.4639 32.6401 61.5854 33.8046 60.645 34.9259C60.15 35.4187 59.6427 35.5605 59.123 35.351C58.591 35.1292 58.3806 34.6609 58.492 33.9463C58.9993 31.7037 60.0572 29.7568 61.6658 28.1057C62.1855 27.5758 62.8228 27.1507 63.5776 26.8303C63.8745 26.7194 64.1158 26.7564 64.3014 26.9412C64.4994 27.1261 64.5922 27.354 64.5798 27.6251C64.5674 27.8839 64.4128 28.0749 64.1158 28.1981C63.1878 28.6663 62.4082 29.3317 61.7772 30.1942C61.1585 31.0444 60.6759 31.9686 60.3295 32.9667C61.3441 31.6605 62.2907 30.3051 63.1692 28.9004C63.3053 28.6909 63.4847 28.58 63.7075 28.5677C63.9426 28.5554 64.1406 28.6232 64.3014 28.771C64.4746 28.9189 64.5551 29.1161 64.5427 29.3625C64.2952 30.1141 64.2272 30.8904 64.3385 31.6913C64.4623 32.48 64.9325 33.0344 65.7491 33.3548C66.9741 33.3425 68.2115 32.9975 69.4612 32.3198C70.711 31.6421 71.8246 30.9274 72.8021 30.1757C73.3095 29.8061 73.7364 29.3687 74.0828 28.8635Z" fill="white"/>
<path d="M77.8646 39.0845C77.9265 39.0845 77.976 39.103 78.0131 39.14C78.0626 39.1893 78.0812 39.2447 78.0688 39.3063C78.0688 39.3679 78.044 39.4172 77.9945 39.4542C77.9451 39.5035 77.8894 39.5281 77.8275 39.5281C77.5058 39.5281 77.1841 39.5528 76.8624 39.6021C75.2414 43.8285 73.2307 47.8947 70.8302 51.8008C70.5332 52.1458 70.2734 52.2691 70.0506 52.1705C69.8279 52.0842 69.6485 51.8994 69.5124 51.616C69.3639 51.3449 69.2711 51.0861 69.234 50.8397C68.9494 49.2871 69.1226 47.7346 69.7537 46.182C70.3724 44.6294 71.2076 43.2247 72.2593 41.9679C73.1379 40.9452 74.1896 40.1565 75.4146 39.6021C76.85 36.1889 77.8584 32.9174 78.44 29.7876C77.5243 31.1184 76.5592 32.4307 75.5446 33.7245C75.4827 33.8107 75.4146 33.8908 75.3404 33.9648C75.1424 34.2605 74.8949 34.4823 74.598 34.6301C73.7689 34.6548 73.2987 34.2851 73.1874 33.5212C73.076 32.7449 73.1688 31.8885 73.4658 30.952C73.7504 30.0156 74.0783 29.3132 74.4495 28.845C74.7341 28.426 75.0434 28.2289 75.3775 28.2535C75.7116 28.2782 75.9281 28.426 76.0271 28.6971C76.1385 28.9682 76.0086 29.2762 75.6374 29.6213C75.3651 29.8307 75.1053 30.1942 74.8578 30.7118C74.6103 31.2293 74.4371 31.7653 74.3381 32.3198C74.2268 32.8619 74.2515 33.2809 74.4124 33.5766C74.7836 33.17 75.2105 32.6648 75.693 32.061C76.1756 31.4572 76.6087 30.8843 76.9923 30.3421C77.1655 30.0833 77.3635 29.8122 77.5862 29.5288C77.8337 29.2085 78.0626 28.8819 78.273 28.5492C78.4957 28.2042 78.638 27.8654 78.6998 27.5327C78.7246 27.3479 78.8112 27.2062 78.9597 27.1076C79.6526 26.6517 80.0176 26.8365 80.0548 27.6621C80.0919 28.4876 79.9496 29.5905 79.6279 30.9705C79.3185 32.3383 78.9721 33.6259 78.5885 34.8335C78.2173 36.0287 77.9698 36.768 77.8461 37.0514C77.5862 37.7538 77.3202 38.45 77.048 39.14C77.3202 39.103 77.5924 39.0845 77.8646 39.0845ZM70.0135 50.3776C71.8325 47.3464 73.5586 43.9394 75.1919 40.1565C73.571 41.0437 72.315 42.3006 71.4241 43.9271C70.7312 45.1346 70.2548 46.3976 69.995 47.7161C69.9826 47.7654 69.9702 47.827 69.9578 47.9009C69.896 48.2706 69.8527 48.6895 69.8279 49.1578C69.8032 49.6383 69.865 50.0449 70.0135 50.3776Z" fill="white"/>
<path d="M96.3649 29.0298C96.4268 28.9682 96.4887 28.9497 96.5505 28.9744C96.6248 28.999 96.6743 29.0421 96.699 29.1037C96.7238 29.1653 96.7114 29.2331 96.6619 29.307C95.6473 30.2805 94.379 31.3463 92.857 32.5046C91.335 33.6629 89.7388 34.6486 88.0684 35.4619C86.4103 36.2751 84.8698 36.6509 83.4468 36.5893C82.4693 36.3922 81.9434 35.8808 81.8692 35.0552C81.7825 34.2174 81.9743 33.2686 82.4445 32.2089C82.9147 31.1492 83.4839 30.1757 84.1521 29.2886C84.8203 28.3891 85.408 27.773 85.9154 27.4403C86.2495 27.1938 86.633 27.0213 87.0661 26.9227C87.5116 26.8242 87.9323 26.8981 88.3282 27.1445C88.5757 27.3294 88.6809 27.5512 88.6438 27.8099C88.6066 28.0564 88.4767 28.2535 88.254 28.4014C88.0436 28.5369 87.8023 28.5369 87.5301 28.4014C86.9238 28.5492 86.3299 28.9435 85.7483 29.5843C85.1791 30.225 84.6718 30.9397 84.2263 31.7283C83.7809 32.5169 83.453 33.1946 83.2426 33.7614C83.2055 33.8847 83.1684 34.014 83.1313 34.1496C82.9828 34.5562 82.9024 34.9567 82.89 35.351C82.8776 35.733 83.0942 35.9609 83.5396 36.0348C84.8636 36.1211 86.1381 35.8931 87.3631 35.351C88.5881 34.7965 89.7512 34.1681 90.8525 33.4657C90.9638 33.3918 91.069 33.324 91.168 33.2624C92.591 32.3506 93.9273 31.334 95.1771 30.2127C95.5978 29.8431 95.9937 29.4487 96.3649 29.0298Z" fill="white"/>
</svg>
