<svg width="28" height="28" viewBox="0 0 28 28" fill="none" xmlns="http://www.w3.org/2000/svg">
<path d="M25.375 0H2.625C1.18125 0 0 1.18125 0 2.625V25.375C0 26.8188 1.18125 28 2.625 28H25.375C26.8188 28 28 26.8188 28 25.375V2.625C28 1.18125 26.8188 0 25.375 0ZM22.6782 19.6L20.118 19.6385C20.118 19.6385 19.565 19.7488 18.844 19.25C17.8867 18.5938 16.9837 16.8822 16.2785 17.1062C15.568 17.3302 15.589 18.8668 15.589 18.8668C15.589 18.8668 15.5943 19.1957 15.4298 19.369C15.2548 19.5597 14.9048 19.5983 14.9048 19.5983H13.762C13.762 19.5983 11.235 19.7523 9.009 17.4318C6.58 14.9048 4.438 9.891 4.438 9.891C4.438 9.891 4.312 9.562 4.4485 9.4045C4.60075 9.22425 5.012 9.21375 5.012 9.21375L7.7525 9.198C7.7525 9.198 8.00975 9.24175 8.19525 9.37825C8.34925 9.4885 8.42975 9.70025 8.42975 9.70025C8.42975 9.70025 8.8725 10.822 9.45875 11.8335C10.6015 13.8075 11.137 14.2397 11.5255 14.0315C12.089 13.7252 11.9192 11.2367 11.9192 11.2367C11.9192 11.2367 11.9298 10.3337 11.6357 9.93475C11.4065 9.62325 10.9742 9.5305 10.7887 9.50775C10.6348 9.485 10.8868 9.12975 11.2157 8.967C11.7075 8.7255 12.5773 8.70975 13.6062 8.72025C14.4043 8.7255 14.6405 8.77975 14.952 8.8515C15.8987 9.08075 15.575 9.961 15.575 12.0732C15.575 12.7523 15.4543 13.7025 15.9408 14.014C16.149 14.1505 16.6617 14.035 17.948 11.8545C18.5553 10.8203 19.0138 9.6075 19.0138 9.6075C19.0138 9.6075 19.1117 9.38875 19.2657 9.296C19.425 9.20325 19.6385 9.23125 19.6385 9.23125L22.5208 9.2155C22.5208 9.2155 23.3853 9.11225 23.527 9.506C23.674 9.9155 23.205 10.8728 22.029 12.4425C20.0988 15.0185 19.88 14.777 21.4883 16.2645C23.0195 17.6873 23.3362 18.3803 23.3923 18.4678C24.0152 19.5178 22.6818 19.6 22.6818 19.6H22.6782Z" fill="white"/>
</svg>
