<svg width="28" height="28" viewBox="0 0 28 28" fill="none" xmlns="http://www.w3.org/2000/svg">
<path d="M16.7526 21.4193V18.5573C16.7526 17.9497 16.5764 17.6458 16.224 17.6458C16.0174 17.6458 15.8168 17.7431 15.6224 17.9375V22.0208C15.8168 22.2153 16.0174 22.3125 16.224 22.3125C16.5764 22.3125 16.7526 22.0148 16.7526 21.4193ZM20.1068 19.1953H21.3099V18.5755C21.3099 17.9557 21.1094 17.6458 20.7083 17.6458C20.3073 17.6458 20.1068 17.9557 20.1068 18.5755V19.1953ZM9.69792 14.3464V15.6224H8.23958V23.3333H6.89062V15.6224H5.46875V14.3464H9.69792ZM13.362 16.6432V23.3333H12.1406V22.6042C11.6667 23.151 11.2049 23.4245 10.7552 23.4245C10.3542 23.4245 10.099 23.2543 9.98958 22.9141C9.91667 22.7075 9.88021 22.3793 9.88021 21.9297V16.6432H11.0833V21.5651C11.0833 21.8568 11.0894 22.0148 11.1016 22.0391C11.1137 22.2214 11.2049 22.3125 11.375 22.3125C11.6181 22.3125 11.8733 22.1241 12.1406 21.7474V16.6432H13.362ZM17.9557 18.6667V21.3281C17.9557 21.9601 17.9132 22.4036 17.8281 22.6589C17.6823 23.1693 17.3602 23.4245 16.862 23.4245C16.4366 23.4245 16.0234 23.1753 15.6224 22.6771V23.3333H14.401V14.3464H15.6224V17.2812C16.0113 16.7951 16.4245 16.5521 16.862 16.5521C17.3602 16.5521 17.6823 16.8073 17.8281 17.3177C17.9132 17.5729 17.9557 18.0226 17.9557 18.6667ZM22.5312 21.0182V21.1823C22.5312 21.5347 22.5191 21.796 22.4948 21.9661C22.4583 22.2335 22.3672 22.4766 22.2214 22.6953C21.8932 23.1814 21.4071 23.4245 20.763 23.4245C20.1311 23.4245 19.6389 23.1936 19.2865 22.7318C19.0312 22.4036 18.9036 21.8811 18.9036 21.1641V18.8125C18.9036 18.0955 19.0252 17.5729 19.2682 17.2448C19.6207 16.783 20.1068 16.5521 20.7266 16.5521C21.3464 16.5521 21.8203 16.783 22.1484 17.2448C22.4036 17.5972 22.5312 18.1198 22.5312 18.8125V20.1979H20.1068V21.3828C20.1068 22.0026 20.3134 22.3125 20.7266 22.3125C21.0182 22.3125 21.2005 22.1545 21.2734 21.8385C21.2734 21.8264 21.2765 21.7839 21.2826 21.7109C21.2886 21.638 21.2917 21.5378 21.2917 21.4102V21.0182H22.5312ZM14.3099 5.9974V8.84115C14.3099 9.46094 14.1155 9.77083 13.7266 9.77083C13.3377 9.77083 13.1432 9.46094 13.1432 8.84115V5.9974C13.1432 5.36545 13.3377 5.04948 13.7266 5.04948C14.1155 5.04948 14.3099 5.36545 14.3099 5.9974ZM24.026 18.9948C24.026 16.8438 23.9106 15.2639 23.6797 14.2552C23.5582 13.7205 23.2969 13.2739 22.8958 12.9154C22.4948 12.5569 22.033 12.3472 21.5104 12.2865C19.8576 12.1042 17.3542 12.013 14 12.013C10.658 12.013 8.16059 12.1042 6.50781 12.2865C5.97309 12.3472 5.50825 12.5569 5.11328 12.9154C4.71832 13.2739 4.46007 13.7205 4.33854 14.2552C4.09549 15.3125 3.97396 16.8924 3.97396 18.9948C3.97396 21.1337 4.09549 22.7135 4.33854 23.7344C4.46007 24.2569 4.71832 24.7005 5.11328 25.0651C5.50825 25.4297 5.96701 25.6424 6.48958 25.7031C8.15451 25.8854 10.658 25.9766 14 25.9766C17.342 25.9766 19.8455 25.8854 21.5104 25.7031C22.033 25.6424 22.4918 25.4297 22.8867 25.0651C23.2817 24.7005 23.5399 24.2569 23.6615 23.7344C23.9045 22.7135 24.026 21.1337 24.026 18.9948ZM10.263 7.1276L11.9036 1.73177H10.5365L9.60677 5.28646L8.64062 1.73177H7.21875C7.30382 2.01128 7.44358 2.43056 7.63802 2.98958L8.07552 4.2474C8.50087 5.49913 8.78038 6.4592 8.91406 7.1276V10.7917H10.263V7.1276ZM15.5312 8.60417V6.23438C15.5312 5.52951 15.4036 5.00087 15.1484 4.64844C14.796 4.18663 14.322 3.95573 13.7266 3.95573C13.1068 3.95573 12.6328 4.18663 12.3047 4.64844C12.0495 5.00087 11.9219 5.52951 11.9219 6.23438V8.60417C11.9219 9.30903 12.0495 9.83767 12.3047 10.1901C12.6328 10.6519 13.1068 10.8828 13.7266 10.8828C14.322 10.8828 14.796 10.6519 15.1484 10.1901C15.4036 9.86198 15.5312 9.33333 15.5312 8.60417ZM18.8307 10.7917H20.0521V4.04688H18.8307V9.20573C18.5634 9.58247 18.3082 9.77083 18.0651 9.77083C17.8828 9.77083 17.7856 9.67361 17.7734 9.47917C17.7613 9.45486 17.7552 9.29688 17.7552 9.00521V4.04688H16.5339V9.38802C16.5339 9.83767 16.5703 10.1719 16.6432 10.3906C16.7769 10.7188 17.0382 10.8828 17.4271 10.8828C17.8646 10.8828 18.3325 10.6094 18.8307 10.0625V10.7917ZM28 5.25V22.75C28 24.1962 27.4865 25.4327 26.4596 26.4596C25.4327 27.4865 24.1962 28 22.75 28H5.25C3.80382 28 2.56727 27.4865 1.54036 26.4596C0.513455 25.4327 0 24.1962 0 22.75V5.25C0 3.80382 0.513455 2.56727 1.54036 1.54036C2.56727 0.513455 3.80382 0 5.25 0H22.75C24.1962 0 25.4327 0.513455 26.4596 1.54036C27.4865 2.56727 28 3.80382 28 5.25Z" fill="white"/>
</svg>
